<?xml version="1.0" standalone="no"?>
<!DOCTYPE svg PUBLIC "-//W3C//DTD SVG 20010904//EN"
 "http://www.w3.org/TR/2001/REC-SVG-20010904/DTD/svg10.dtd">
<svg version="1.0" xmlns="http://www.w3.org/2000/svg"
 width="342.000000pt" height="342.000000pt" viewBox="0 0 342.000000 342.000000"
 preserveAspectRatio="xMidYMid meet">
<metadata>
Created by potrace 1.14, written by Peter Selinger 2001-2017
</metadata>
<g transform="translate(0.000000,342.000000) scale(0.100000,-0.100000)"
fill="#000000" stroke="none">
<path d="M1485 3413 c-169 -38 -254 -71 -352 -135 -171 -111 -302 -276 -365
-458 -75 -219 -68 -449 22 -662 l28 -69 -55 -24 c-111 -50 -235 -156 -312
-268 -134 -196 -170 -451 -95 -675 45 -134 99 -221 200 -319 102 -99 241 -174
379 -204 85 -18 255 -16 340 5 39 9 112 37 164 62 77 38 109 61 184 134 69 68
88 92 83 107 -4 10 13 -4 36 -32 59 -68 115 -120 164 -152 l42 -27 4 -76 c5
-88 23 -127 81 -173 30 -24 49 -32 95 -35 94 -7 161 37 201 131 l20 47 53 0
c29 0 70 4 91 9 l37 9 0 -214 c0 -243 6 -267 77 -321 31 -24 46 -28 98 -28 75
0 125 29 155 91 19 38 20 61 20 350 l0 311 26 24 c79 73 168 236 198 364 84
353 -97 725 -428 881 -73 34 -172 64 -214 64 -19 0 -23 4 -17 18 42 98 46 114
66 222 13 74 12 216 -1 293 -37 206 -113 352 -259 498 -74 73 -220 174 -271
186 -14 3 -30 9 -35 14 -6 4 -46 17 -90 29 -60 17 -114 23 -215 25 -74 2 -144
1 -155 -2z m165 -1508 c30 -30 52 -55 49 -55 -2 0 -29 25 -59 55 -30 30 -52
55 -49 55 2 0 29 -25 59 -55z m70 -82 c0 -5 -10 -19 -21 -33 l-21 -25 18 33
c18 32 24 38 24 25z m-50 -83 c-6 -11 -13 -20 -16 -20 -2 0 0 9 6 20 6 11 13
20 16 20 2 0 0 -9 -6 -20z m-39 -77 c-12 -20 -14 -14 -5 12 4 9 9 14 11 11 3
-2 0 -13 -6 -23z m-44 -145 c-3 -8 -6 -5 -6 6 -1 11 2 17 5 13 3 -3 4 -12 1
-19z m-10 -60 c-3 -7 -5 -2 -5 12 0 14 2 19 5 13 2 -7 2 -19 0 -25z m-10 -120
c-2 -13 -4 -3 -4 22 0 25 2 35 4 23 2 -13 2 -33 0 -45z m10 -100 c-3 -7 -5 -2
-5 12 0 14 2 19 5 13 2 -7 2 -19 0 -25z m10 -50 c-3 -8 -6 -5 -6 6 -1 11 2 17
5 13 3 -3 4 -12 1 -19z m67 -175 c9 -18 14 -33 12 -33 -6 0 -36 55 -36 66 0
11 5 3 24 -33z"/>
</g>
</svg>
